<svg width="30" height="30" viewBox="0 0 30 30" fill="none" xmlns="http://www.w3.org/2000/svg">
<path fill-rule="evenodd" clip-rule="evenodd" d="M7.24 2.5H1.25V5H5.2725L8.735 20.8475H8.75V21.25H25V20.94L27.7412 8.86375L28.1637 7.5H8.31875L7.60625 4.23625L7.24 2.5ZM24.9837 10H8.865L10.7762 18.75H22.9975L24.9837 10V10Z" fill="#FCFCFF"/>
<path d="M12.5 27.5C13.163 27.5 13.7989 27.2366 14.2678 26.7678C14.7366 26.2989 15 25.663 15 25C15 24.337 14.7366 23.7011 14.2678 23.2322C13.7989 22.7634 13.163 22.5 12.5 22.5C11.837 22.5 11.2011 22.7634 10.7322 23.2322C10.2634 23.7011 10 24.337 10 25C10 25.663 10.2634 26.2989 10.7322 26.7678C11.2011 27.2366 11.837 27.5 12.5 27.5Z" fill="#FCFCFF"/>
<path d="M23.75 25C23.75 25.663 23.4866 26.2989 23.0178 26.7678C22.5489 27.2366 21.913 27.5 21.25 27.5C20.587 27.5 19.9511 27.2366 19.4822 26.7678C19.0134 26.2989 18.75 25.663 18.75 25C18.75 24.337 19.0134 23.7011 19.4822 23.2322C19.9511 22.7634 20.587 22.5 21.25 22.5C21.913 22.5 22.5489 22.7634 23.0178 23.2322C23.4866 23.7011 23.75 24.337 23.75 25V25Z" fill="#FCFCFF"/>
</svg>
