<svg width="30" height="30" viewBox="0 0 30 30" fill="none" xmlns="http://www.w3.org/2000/svg">
<g clip-path="url(#clip0_97_49)">
<path d="M21.84 17.9775C21.4688 17.7912 19.6425 16.8937 19.3025 16.7687C18.9613 16.645 18.7138 16.5837 18.465 16.9562C18.2188 17.3275 17.5063 18.1637 17.29 18.4112C17.0738 18.66 16.8563 18.69 16.485 18.505C16.1138 18.3175 14.9163 17.9262 13.4975 16.6612C12.3938 15.6762 11.6475 14.46 11.4313 14.0875C11.215 13.7162 11.4088 13.515 11.5938 13.33C11.7613 13.1637 11.9663 12.8962 12.1513 12.68C12.3375 12.4625 12.3988 12.3075 12.5238 12.0587C12.6475 11.8112 12.5863 11.595 12.4925 11.4087C12.3988 11.2225 11.6563 9.39374 11.3475 8.64999C11.045 7.92624 10.7388 8.02499 10.5113 8.01249C10.2739 8.00303 10.0364 7.99887 9.79879 7.99999C9.55129 7.99999 9.14879 8.09249 8.80879 8.46499C8.46879 8.83624 7.50879 9.73499 7.50879 11.5637C7.50879 13.3912 8.84004 15.1575 9.02504 15.4062C9.21129 15.6537 11.645 19.4062 15.3713 21.015C16.2575 21.3975 16.9488 21.6262 17.4888 21.7962C18.3788 22.08 19.1888 22.04 19.8275 21.9437C20.5413 21.8375 22.025 21.045 22.335 20.1775C22.645 19.31 22.645 18.5662 22.5513 18.4112C22.4588 18.2562 22.2113 18.1637 21.8388 17.9775H21.84ZM15.0625 27.2312H15.0575C12.8447 27.2314 10.6726 26.6365 8.76879 25.5087L8.31754 25.2412L3.64129 26.4687L4.88879 21.9087L4.59504 21.4412C3.35809 19.4716 2.70371 17.1921 2.70754 14.8662C2.70879 8.05374 8.25254 2.51124 15.0675 2.51124C18.3675 2.51124 21.47 3.79874 23.8025 6.13374C24.9534 7.27951 25.8656 8.64215 26.4863 10.1428C27.107 11.6434 27.424 13.2523 27.4188 14.8762C27.415 21.6887 21.8725 27.2312 15.0625 27.2312V27.2312ZM25.5788 4.35999C24.2015 2.97364 22.5628 1.87441 20.7576 1.12599C18.9525 0.37757 17.0167 -0.00515634 15.0625 -9.81322e-06C6.86879 -9.81322e-06 0.200039 6.66874 0.196289 14.865C0.196289 17.485 0.880039 20.0425 2.18129 22.2962L0.0712891 30L7.95254 27.9325C10.132 29.1199 12.5743 29.7422 15.0563 29.7425H15.0625C23.255 29.7425 29.925 23.0737 29.9288 14.8762C29.9348 12.9228 29.5535 10.9876 28.8068 9.18253C28.0602 7.37745 26.963 5.73833 25.5788 4.35999V4.35999Z" fill="#5F657D"/>
</g>
<defs>
<clipPath id="clip0_97_49">
<rect width="30" height="30" fill="white"/>
</clipPath>
</defs>
</svg>
