<svg width="30" height="30" viewBox="0 0 30 30" fill="none" xmlns="http://www.w3.org/2000/svg">
<g clip-path="url(#clip0_97_45)">
<path d="M15.6563 0.025C17.2938 0 18.9188 0.0125 20.5438 0C20.6438 1.9125 21.3313 3.8625 22.7313 5.2125C24.1313 6.6 26.1063 7.2375 28.0313 7.45V12.4875C26.2313 12.425 24.4188 12.05 22.7813 11.275C22.0688 10.95 21.4063 10.5375 20.7563 10.1125C20.7438 13.7625 20.7688 17.4125 20.7313 21.05C20.6313 22.8 20.0563 24.5375 19.0438 25.975C17.4063 28.375 14.5688 29.9375 11.6563 29.9875C9.86878 30.0875 8.08128 29.6 6.55628 28.7C4.03128 27.2125 2.25628 24.4875 1.99378 21.5625C1.96878 20.9375 1.95628 20.3125 1.98128 19.7C2.20628 17.325 3.38128 15.05 5.20628 13.5C7.28128 11.7 10.1813 10.8375 12.8938 11.35C12.9188 13.2 12.8438 15.05 12.8438 16.9C11.6063 16.5 10.1563 16.6125 9.06878 17.3625C8.28128 17.875 7.68128 18.6625 7.36878 19.55C7.10628 20.1875 7.18128 20.8875 7.19378 21.5625C7.49378 23.6125 9.46878 25.3375 11.5688 25.15C12.9688 25.1375 14.3063 24.325 15.0313 23.1375C15.2688 22.725 15.5313 22.3 15.5438 21.8125C15.6688 19.575 15.6188 17.35 15.6313 15.1125C15.6438 10.075 15.6188 5.05 15.6563 0.025V0.025Z" fill="#5F657D"/>
</g>
<defs>
<clipPath id="clip0_97_45">
<rect width="30" height="30" fill="white"/>
</clipPath>
</defs>
</svg>
