<svg width="133" height="58" viewBox="0 0 133 58" fill="none" xmlns="http://www.w3.org/2000/svg">
<path d="M25.416 0.407999V27H18.648V23.64C17.784 24.792 16.648 25.704 15.24 26.376C13.864 27.016 12.36 27.336 10.728 27.336C8.648 27.336 6.808 26.904 5.208 26.04C3.608 25.144 2.344 23.848 1.416 22.152C0.52 20.424 0.0720001 18.376 0.0720001 16.008V0.407999H6.792V15.048C6.792 17.16 7.32 18.792 8.376 19.944C9.432 21.064 10.872 21.624 12.696 21.624C14.552 21.624 16.008 21.064 17.064 19.944C18.12 18.792 18.648 17.16 18.648 15.048V0.407999H25.416ZM46.4224 0.0239983C49.5904 0.0239983 52.1504 1.032 54.1024 3.048C56.0544 5.032 57.0304 7.816 57.0304 11.4V27H50.3104V12.312C50.3104 10.2 49.7824 8.584 48.7264 7.464C47.6704 6.312 46.2304 5.736 44.4064 5.736C42.5504 5.736 41.0784 6.312 39.9904 7.464C38.9344 8.584 38.4064 10.2 38.4064 12.312V27H31.6864V0.407999H38.4064V3.72C39.3024 2.568 40.4384 1.672 41.8144 1.032C43.2224 0.359999 44.7584 0.0239983 46.4224 0.0239983ZM66.0367 27.336C64.8207 27.336 63.8127 26.968 63.0127 26.232C62.2447 25.464 61.8607 24.52 61.8607 23.4C61.8607 22.28 62.2447 21.352 63.0127 20.616C63.8127 19.848 64.8207 19.464 66.0367 19.464C67.2207 19.464 68.1967 19.848 68.9647 20.616C69.7327 21.352 70.1167 22.28 70.1167 23.4C70.1167 24.52 69.7327 25.464 68.9647 26.232C68.1967 26.968 67.2207 27.336 66.0367 27.336ZM59.331 30.408L51.555 57H44.307L39.459 38.424L34.611 57H27.315L19.491 30.408H26.307L31.011 50.664L36.099 30.408H43.203L48.195 50.616L52.899 30.408H59.331ZM66.015 27.24C64.831 27.24 63.839 26.872 63.039 26.136C62.271 25.368 61.887 24.424 61.887 23.304C61.887 22.184 62.271 21.256 63.039 20.52C63.839 19.752 64.831 19.368 66.015 19.368C67.199 19.368 68.175 19.752 68.943 20.52C69.743 21.256 70.143 22.184 70.143 23.304C70.143 24.424 69.743 25.368 68.943 26.136C68.175 26.872 67.199 27.24 66.015 27.24ZM69.327 30.408V57H62.607V30.408H69.327ZM90.3424 30.024C93.5104 30.024 96.0704 31.032 98.0224 33.048C99.9744 35.032 100.95 37.816 100.95 41.4V57H94.2304V42.312C94.2304 40.2 93.7024 38.584 92.6464 37.464C91.5904 36.312 90.1504 35.736 88.3264 35.736C86.4704 35.736 84.9984 36.312 83.9104 37.464C82.8544 38.584 82.3264 40.2 82.3264 42.312V57H75.6064V30.408H82.3264V33.72C83.2224 32.568 84.3584 31.672 85.7344 31.032C87.1424 30.36 88.6784 30.024 90.3424 30.024ZM105.253 43.608C105.253 40.92 105.781 38.536 106.837 36.456C107.925 34.376 109.397 32.776 111.253 31.656C113.109 30.536 115.173 29.976 117.445 29.976C119.173 29.976 120.821 30.36 122.389 31.128C123.957 31.864 125.205 32.856 126.133 34.104V21.48H132.949V57H126.133V53.064C125.301 54.376 124.133 55.432 122.629 56.232C121.125 57.032 119.381 57.432 117.397 57.432C115.157 57.432 113.109 56.856 111.253 55.704C109.397 54.552 107.925 52.936 106.837 50.856C105.781 48.744 105.253 46.328 105.253 43.608ZM126.181 43.704C126.181 42.072 125.861 40.68 125.221 39.528C124.581 38.344 123.717 37.448 122.629 36.84C121.541 36.2 120.373 35.88 119.125 35.88C117.877 35.88 116.725 36.184 115.669 36.792C114.613 37.4 113.749 38.296 113.077 39.48C112.437 40.632 112.117 42.008 112.117 43.608C112.117 45.208 112.437 46.616 113.077 47.832C113.749 49.016 114.613 49.928 115.669 50.568C116.757 51.208 117.909 51.528 119.125 51.528C120.373 51.528 121.541 51.224 122.629 50.616C123.717 49.976 124.581 49.08 125.221 47.928C125.861 46.744 126.181 45.336 126.181 43.704Z" fill="#FCFCFF"/>
</svg>
